<svg xmlns="http://www.w3.org/2000/svg" viewBox="0 0 128 128" width="128" height="128">
  <defs>
    <linearGradient id="g" x1="0%" y1="0%" x2="100%" y2="100%">
      <stop offset="0%" stop-color="#6366f1"/>
      <stop offset="100%" stop-color="#a855f7"/>
    </linearGradient>
  </defs>
  <rect width="128" height="128" rx="28" fill="url(#g)"/>
  <!-- Three claw marks -->
  <path d="M32 28 C30 48, 28 68, 34 92 C36 96, 42 96, 44 92 C48 68, 44 48, 40 28 C38 24, 34 24, 32 28Z" fill="white" opacity="0.95"/>
  <path d="M52 24 C50 48, 48 72, 54 96 C56 100, 62 100, 64 96 C68 72, 64 48, 60 24 C58 20, 54 20, 52 24Z" fill="white" opacity="0.95"/>
  <path d="M72 28 C70 48, 68 68, 74 92 C76 96, 82 96, 84 92 C88 68, 84 48, 80 28 C78 24, 74 24, 72 28Z" fill="white" opacity="0.95"/>
</svg>
